#!OML:ASF E:\acrobat2\Project_11_07_03\Capture day 1\Session 1\Acrobat.ASF
:FULLY-SPECIFIED
:DEGREES
690
root 7.80531 27.6062 0.319691 8.76411 -1.64058 -0.0527183
lowerback 6.04736 1.061 -0.225962
upperback 2.74188 1.37313 -2.16607
thorax -0.518951 0.695848 -2.18678
lowerneck -2.34757 0.0262393 -1.80169
upperneck 26.0593 0.190167 0.328307
head 8.45956 -0.0465559 0.435729
rclavicle 6.75868e-015 -6.36111e-015
rhumerus -43.4359 -4.66553 -78.4955
rradius 50.2312
rwrist 8.6396
rhand -25.741 -15.8099
rfingers 7.12502
rthumb 0.795857 -45.7882
lclavicle 6.75868e-015 -6.36111e-015
lhumerus -29.2922 16.0994 49.9261
lradius 97.8887
lwrist -2.77736
lhand -49.8946 -61.7271
lfingers 7.12502
lthumb -22.4879 -33.0164
rfemur -27.5276 1.31581 13.7219
rtibia 56.7468
rfoot -13.7227 -1.11389
rtoes -23.7925
lfemur -28.034 -3.1403 -19.6755
ltibia 38.8628
lfoot -3.99751 -14.2237
ltoes 36.7989
691
root 7.80506 27.6341 0.206497 8.90962 -2.04091 0.0422415
lowerback 6.06689 1.01191 -0.0949862
upperback 2.7502 1.31404 -2.22085
thorax -0.519011 0.667612 -2.31353
lowerneck -2.2945 0.138928 -1.9054
upperneck 26.0357 0.355103 0.319003
head 8.43989 0.0189843 0.462777
rclavicle 1.33186e-014 -1.43125e-014
rhumerus -43.2938 -4.81295 -78.4914
rradius 50.4028
rwrist 8.26119
rhand -25.6283 -16.1305
rfingers 7.12502
rthumb 0.904779 -46.1083
lclavicle 1.33186e-014 -1.43125e-014
lhumerus -29.5313 16.0553 50.2759
lradius 97.7287
lwrist -2.76087
lhand -49.7845 -61.7052
lfingers 7.12502
lthumb -22.3822 -32.9818
rfemur -28.6345 0.565037 13.581
rtibia 56.5587
rfoot -14.4853 -1.39375
rtoes -23.6843
lfemur -27.3416 -3.13186 -20.0808
ltibia 38.2053
lfoot -4.95417 -14.6201
ltoes 37.1979
692
root 7.8023 27.6666 0.0929908 9.06127 -2.30158 0.122163
lowerback 6.1003 0.925379 0.0512633
upperback 2.76964 1.2064 -2.25581
thorax -0.517876 0.615233 -2.42558
lowerneck -2.2849 0.242897 -2.01246
upperneck 25.9965 0.501237 0.342898
head 8.42267 0.0786548 0.500082
rclavicle -1.19271e-015 -1.35174e-014
rhumerus -43.161 -4.90655 -78.5112
rradius 50.6026
rwrist 7.97961
rhand -25.4435 -16.3878
rfingers 7.12502
rthumb 1.08324 -46.3648
lclavicle -1.19271e-015 -1.35174e-014
lhumerus -29.6918 16.0009 50.6471
lradius 97.519
lwrist -2.79647
lhand -49.631 -61.6826
lfingers 7.12502
lthumb -22.2349 -32.9416
rfemur -29.5863 -0.247034 13.5565
rtibia 55.9455
rfoot -15.1413 -1.43205
rtoes -23.7359
lfemur -26.7267 -3.3722 -20.4092
ltibia 37.5675
lfoot -5.86839 -14.913
ltoes 37.3474
693
root 7.79622 27.7025 -0.0215303 9.20969 -2.44898 0.178752
lowerback 6.15723 0.812645 0.188183
upperback 2.80145 1.0639 -2.25422
thorax -0.520247 0.545228 -2.49274
lowerneck -2.38604 0.353835 -1.98999
upperneck 26.0265 0.679852 0.223162
head 8.45002 0.152032 0.469892
rclavicle 1.39149e-015 -1.19271e-015
rhumerus -43.0403 -4.93312 -78.5356
rradius 50.8183
rwrist 7.77927
rhand -25.2775 -16.5059
rfingers 7.12502
rthumb 1.24352 -46.482
lclavicle 1.39149e-015 -1.19271e-015
lhumerus -29.7955 15.9274 51.0596
lradius 97.2895
lwrist -2.86973
lhand -49.4632 -61.6052
lfingers 7.12502
lthumb -22.0738 -32.8451
rfemur -30.3827 -1.05289 13.6576
rtibia 54.9545
rfoot -15.6422 -1.23536
rtoes -24.0802
lfemur -26.1753 -3.80012 -20.6503
ltibia 36.9495
lfoot -6.71309 -15.1184
ltoes 37.3949
694
root 7.78684 27.7408 -0.137295 9.34994 -2.52302 0.195581
lowerback 6.23108 0.685572 0.310871
upperback 2.84851 0.902346 -2.20242
thorax -0.518935 0.465447 -2.49883
lowerneck -2.42527 0.464726 -1.84312
upperneck 25.9552 0.87857 -0.0516363
head 8.43263 0.233125 0.367223
rclavicle -8.94531e-015 1.31198e-014
rhumerus -42.9366 -4.8768 -78.5461
rradius 51.0558
rwrist 7.6823
rhand -25.1838 -16.4438
rfingers 7.12502
rthumb 1.33402 -46.4194
lclavicle -8.94531e-015 1.31198e-014
lhumerus -29.8682 15.8411 51.5181
lradius 97.0635
lwrist -2.96831
lhand -49.3106 -61.4757
lfingers 7.12502
lthumb -21.9273 -32.6983
rfemur -31.0276 -1.7791 13.8972
rtibia 53.6424
rfoot -15.9622 -0.835726
rtoes -24.7473
lfemur -25.6639 -4.32478 -20.7909
ltibia 36.3287
lfoot -7.45968 -15.2459
ltoes 37.4181
695
root 7.77389 27.7804 -0.253892 9.48499 -2.56671 0.164955
lowerback 6.30126 0.557567 0.414756
upperback 2.90918 0.739439 -2.1021
thorax -0.502969 0.384767 -2.44376
lowerneck -2.49898 0.581514 -1.76075
upperneck 25.9328 1.08361 -0.282751
head 8.43873 0.314738 0.291258
rclavicle 8.94531e-015 -3.85642e-014
rhumerus -42.8396 -4.72961 -78.5463
rradius 51.2981
rwrist 7.68903
rhand -25.1771 -16.2326
rfingers 7.12502
rthumb 1.34048 -46.2081
lclavicle 8.94531e-015 -3.85642e-014
lhumerus -29.9386 15.7345 52.0097
lradius 96.8701
lwrist -3.06957
lhand -49.2103 -61.3681
lfingers 7.12502
lthumb -21.8309 -32.5795
rfemur -31.5314 -2.36421 14.2757
rtibia 52.0676
rfoot -16.079 -0.30719
rtoes -25.5856
lfemur -25.1781 -4.85213 -20.8274
ltibia 35.6822
lfoot -8.09635 -15.2946
ltoes 37.4193
696
root 7.75714 27.821 -0.370072 9.61159 -2.60915 0.1012
lowerback 6.35665 0.438696 0.48037
upperback 2.97841 0.587196 -1.96542
thorax -0.470306 0.309056 -2.32991
lowerneck -2.54268 0.697832 -1.66265
upperneck 25.9264 1.29579 -0.556844
head 8.44601 0.39709 0.198704
rclavicle 2.78299e-015 3.45885e-014
rhumerus -42.742 -4.48538 -78.5464
rradius 51.5255
rwrist 7.7704
rhand -25.2472 -15.9501
rfingers 7.12502
rthumb 1.27285 -45.9261
lclavicle 2.78299e-015 3.45885e-014
lhumerus -30.024 15.601 52.5157
lradius 96.7342
lwrist -3.1498
lhand -49.187 -61.2941
lfingers 7.12502
lthumb -21.8086 -32.5029
rfemur -31.8866 -2.78393 14.7641
rtibia 50.2827
rfoot -15.978 0.250205
rtoes -26.3161
lfemur -24.6979 -5.31593 -20.7843
ltibia 34.9927
lfoot -8.61462 -15.2691
ltoes 37.3768
697
root 7.73651 27.8624 -0.48468 9.72094 -2.64377 0.0119049
lowerback 6.39545 0.334951 0.518223
upperback 3.05625 0.453854 -1.80923
thorax -0.418744 0.242589 -2.18133
lowerneck -2.5502 0.80977 -1.64872
upperneck 25.9292 1.48949 -0.739684
head 8.4494 0.471418 0.149766
rclavicle -1.98785e-016 9.54166e-015
rhumerus -42.6391 -4.15941 -78.5614
rradius 51.7176
rwrist 7.86943
rhand -25.3494 -15.708
rfingers 7.12502
rthumb 1.17412 -45.6845
lclavicle -1.98785e-016 9.54166e-015
lhumerus -30.1 15.4244 53.0289
lradius 96.6563
lwrist -3.21626
lhand -49.2191 -61.2272
lfingers 7.12502
lthumb -21.8394 -32.4396
rfemur -32.0665 -3.04713 15.3398
rtibia 48.3342
rfoot -15.6933 0.703004
rtoes -26.7575
lfemur -24.2115 -5.69064 -20.6757
ltibia 34.2651
lfoot -9.0056 -15.1832
ltoes 37.1676
698
root 7.71187 27.9043 -0.596334 9.80443 -2.65934 -0.0971027
lowerback 6.41121 0.255297 0.545105
upperback 3.14583 0.35201 -1.65218
thorax -0.340563 0.191948 -2.02763
lowerneck -2.61546 0.905915 -1.74384
upperneck 26.0499 1.64093 -0.765197
head 8.50225 0.528794 0.169915
rclavicle -1.78906e-015 -8.74653e-015
rhumerus -42.5272 -3.79615 -78.6057
rradius 51.8485
rwrist 7.9342
rhand -25.4422 -15.5615
rfingers 7.12502
rthumb 1.08448 -45.5385
lclavicle -1.78906e-015 -8.74653e-015
lhumerus -30.0835 15.1979 53.5534
lradius 96.573
lwrist -3.29044
lhand -49.2484 -61.2217
lfingers 7.12502
lthumb -21.8676 -32.4374
rfemur -32.0419 -3.15984 15.9779
rtibia 46.2644
rfoot -15.2693 0.937115
rtoes -26.743
lfemur -23.7148 -5.95995 -20.5117
ltibia 33.5173
lfoot -9.21963 -15.0819
ltoes 36.8787
699
root 7.6833 27.9463 -0.703824 9.85094 -2.64905 -0.199135
lowerback 6.40744 0.204982 0.553927
upperback 3.24438 0.287899 -1.5136
thorax -0.240398 0.160212 -1.8853
lowerneck -2.60389 0.960032 -1.93129
upperneck 26.1537 1.70425 -0.626333
head 8.5331 0.552088 0.254026
rclavicle -5.76476e-015 -2.78299e-015
rhumerus -42.4194 -3.45189 -78.6839
rradius 51.9116
rwrist 7.94178
rhand -25.4933 -15.5161
rfingers 7.12502
rthumb 1.0351 -45.4934
lclavicle -5.76476e-015 -2.78299e-015
lhumerus -29.9057 14.9202 54.0845
lradius 96.4155
lwrist -3.38043
lhand -49.2073 -61.3041
lfingers 7.12502
lthumb -21.8281 -32.5151
rfemur -31.7909 -3.13158 16.6256
rtibia 44.1171
rfoot -14.7545 0.885285
rtoes -26.2355
lfemur -23.2024 -6.11154 -20.3276
ltibia 32.7708
lfoot -9.19092 -15.0271
ltoes 36.7215
700
root 7.65069 27.9879 -0.807672 9.85397 -2.58885 -0.249381
lowerback 6.40162 0.177025 0.517036
upperback 3.34506 0.250493 -1.41268
thorax -0.135692 0.141518 -1.75793
lowerneck -2.58593 0.969776 -2.10443
upperneck 26.2969 1.6911 -0.426844
head 8.57609 0.546292 0.350429
rclavicle -8.34896e-015 1.23246e-014
rhumerus -42.3117 -3.17768 -78.7998
rradius 51.8807
rwrist 7.89859
rhand -25.5025 -15.5759
rfingers 7.12502
rthumb 1.02621 -45.5532
lclavicle -8.34896e-015 1.23246e-014
lhumerus -29.5508 14.5826 54.6054
lradius 96.1704
lwrist -3.48364
lhand -49.0435 -61.4558
lfingers 7.12502
lthumb -21.6708 -32.6487
rfemur -31.3124 -2.98461 17.2125
rtibia 41.935
rfoot -14.2245 0.516085
rtoes -25.4594
lfemur -22.6905 -6.15772 -20.172
ltibia 32.0597
lfoot -8.87572 -15.0585
ltoes 36.812
701
root 7.61407 28.028 -0.909212 9.81156 -2.45528 -0.212039
lowerback 6.41003 0.160671 0.412218
upperback 3.44496 0.224361 -1.36044
thorax -0.039168 0.127828 -1.64339
lowerneck -2.64348 0.941765 -2.15335
upperneck 26.5565 1.63082 -0.289742
head 8.67551 0.522991 0.402014
rclavicle -6.95746e-016 1.03368e-014
rhumerus -42.1987 -3.00727 -78.9504
rradius 51.7493
rwrist 7.83675
rhand -25.5355 -15.6459
rfingers 7.12502
rthumb 0.994353 -45.6233
lclavicle -6.95746e-016 1.03368e-014
lhumerus -29.0213 14.1904 55.1017
lradius 95.8456
lwrist -3.59528
lhand -48.7541 -61.6787
lfingers 7.12502
lthumb -21.3929 -32.8397
rfemur -30.6216 -2.73476 17.6817
rtibia 39.7586
rfoot -13.7477 -0.128693
rtoes -24.623
lfemur -22.21 -6.11803 -20.0813
ltibia 31.4273
lfoot -8.25934 -15.1867
ltoes 37.2421
702
root 7.57437 28.0656 -1.00913 9.72566 -2.22994 -0.0802488
lowerback 6.43411 0.143529 0.253747
upperback 3.54452 0.194025 -1.3576
thorax 0.0483797 0.111534 -1.54943
lowerneck -2.58381 0.87008 -2.04258
upperneck 26.718 1.51517 -0.271206
head 8.72237 0.479936 0.380425
rclavicle -3.97569e-016 -6.75868e-015
rhumerus -42.1009 -2.95646 -79.1251
rradius 51.5703
rwrist 7.78681
rhand -25.6414 -15.5877
rfingers 7.12502
rthumb 0.892125 -45.5656
lclavicle -3.97569e-016 -6.75868e-015
lhumerus -28.3508 13.7544 55.5588
lradius 95.4827
lwrist -3.71626
lhand -48.3827 -61.9238
lfingers 7.12502
lthumb -21.0361 -33.0448
rfemur -29.7395 -2.40436 18.0151
rtibia 37.6302
rfoot -13.3689 -0.953681
rtoes -23.8537
lfemur -21.7852 -6.0041 -20.0655
ltibia 30.9095
lfoot -7.34215 -15.4121
ltoes 38.0406
703
root 7.5323 28.0992 -1.1079 9.61196 -1.89476 0.129879
lowerback 6.45926 0.113029 0.0749052
upperback 3.64018 0.144789 -1.40058
thorax 0.13115 0.085712 -1.49008
lowerneck -2.49655 0.760728 -1.96293
upperneck 26.837 1.33052 -0.172241
head 8.74885 0.410218 0.385648
rclavicle 2.98177e-015 -1.15295e-014
rhumerus -42.0316 -3.02144 -79.3195
rradius 51.3889
rwrist 7.77184
rhand -25.7829 -15.3867
rfingers 7.12502
rthumb 0.755407 -45.3651
lclavicle 2.98177e-015 -1.15295e-014
lhumerus -27.5923 13.2794 55.9585
lradius 95.1468
lwrist -3.86087
lhand -48.0075 -62.1392
lfingers 7.12502
lthumb -20.6756 -33.2205
rfemur -28.7047 -2.01675 18.2306
rtibia 35.5884
rfoot -13.1283 -1.85509
rtoes -23.0692
lfemur -21.452 -5.82227 -20.1061
ltibia 30.5428
lfoot -6.12546 -15.7232
ltoes 39.1522
